<?xml version="1.0" encoding="UTF-8"?> <svg xmlns="http://www.w3.org/2000/svg" xmlns:xlink="http://www.w3.org/1999/xlink" version="1.1" id="Layer_1" x="0px" y="0px" viewBox="0 0 390.4 51.9" style="enable-background:new 0 0 390.4 51.9;" xml:space="preserve"> <style type="text/css"> .st0{fill:#FFFFFF;} .st1{fill-rule:evenodd;clip-rule:evenodd;fill:#F58634;} </style> <g> <g transform="translate(214.593539, 58.779101)"> </g> </g> <g> <g transform="translate(265.364374, 58.779101)"> </g> </g> <g> <g transform="translate(14.19871, 48.603229)"> <g> <path class="st0" d="M0.6-35.3c2.2,0,4.2,0.6,5.9,1.7c1.8,1.2,3.2,2.7,4.3,4.7c1.1,2,1.6,4.2,1.6,6.6c0,2.4-0.5,4.6-1.6,6.6 c-1.1,2-2.5,3.5-4.3,4.7C4.7-9.8,2.7-9.2,0.6-9.2c-1.7,0-3.1-0.3-4.3-0.8c-1.2-0.5-2.2-1.3-3.1-2.2V0h-7.4v-34.6h7.4v2.3 c0.8-1,1.9-1.7,3.1-2.2C-2.5-35.1-1.1-35.3,0.6-35.3z M-0.9-16.3c1.7,0,3.1-0.5,4.2-1.6C4.4-19,5-20.4,5-22.3 c0-1.8-0.6-3.3-1.7-4.4c-1.1-1.1-2.5-1.6-4.2-1.6c-1.7,0-3.1,0.6-4.2,1.6c-1.1,1.1-1.6,2.6-1.6,4.4c0,1.8,0.5,3.3,1.6,4.4 C-4-16.8-2.6-16.3-0.9-16.3z"></path> </g> </g> </g> <g> <g transform="translate(37.296199, 48.603229)"> <g> <path class="st0" d="M-2.8-36.8c-1.2,0-2.2-0.4-3.1-1.3s-1.3-1.9-1.3-3.1c0-1.2,0.4-2.3,1.3-3.1s1.9-1.3,3.1-1.3 c1.2,0,2.3,0.4,3.1,1.3s1.3,1.9,1.3,3.1c0,1.2-0.4,2.2-1.3,3.1S-1.6-36.8-2.8-36.8z M-6.5-9.9v-24.7h7.4v24.7H-6.5z"></path> </g> </g> </g> <g> <g transform="translate(46.935605, 48.603229)"> <g> <path class="st0" d="M11.2-35.3c1.7,0,3.2,0.4,4.6,1.2c1.4,0.8,2.5,1.9,3.4,3.4c0.8,1.5,1.3,3.4,1.3,5.6v15.2H13V-24 c0-1.6-0.4-2.7-1.3-3.4c-0.8-0.7-1.8-1.1-3-1.1c-1.3,0-2.5,0.4-3.3,1.2c-0.9,0.8-1.3,2.1-1.3,3.9v13.5h-7.4v-24.7h7.4v2.3 c0.7-0.9,1.6-1.6,2.8-2.2C8.2-35.1,9.6-35.3,11.2-35.3z"></path> </g> </g> </g> <g> <g transform="translate(68.550109, 48.603229)"> <g> <path class="st0" d="M7.6-36.8c-1.2,0-2.2-0.4-3.1-1.3S3.2-40,3.2-41.3c0-1.2,0.4-2.3,1.3-3.1s1.9-1.3,3.1-1.3 c1.2,0,2.3,0.4,3.1,1.3s1.3,1.9,1.3,3.1c0,1.2-0.4,2.2-1.3,3.1S8.8-36.8,7.6-36.8z M3.9-9.9v-24.7h7.4v24.7H3.9z"></path> </g> </g> </g> <g> <g transform="translate(78.189515, 48.603229)"> <g> <path class="st0" d="M19-9.2c-2.4,0-4.6-0.6-6.6-1.7c-2-1.2-3.6-2.7-4.8-4.7c-1.2-2-1.8-4.2-1.8-6.6c0-2.5,0.6-4.7,1.8-6.6 c1.2-2,2.8-3.5,4.8-4.7c2-1.2,4.2-1.7,6.6-1.7c2.4,0,4.7,0.6,6.6,1.7c2,1.2,3.5,2.7,4.7,4.7c1.2,2,1.8,4.2,1.8,6.6 c0,2.4-0.6,4.6-1.8,6.6c-1.2,2-2.7,3.5-4.7,4.7C23.6-9.8,21.4-9.2,19-9.2z M19-16.4c1.6,0,3-0.5,4-1.6c1.1-1.1,1.6-2.5,1.6-4.2 c0-1.8-0.6-3.2-1.6-4.2c-1.1-1.1-2.4-1.6-4-1.6c-1.6,0-3,0.5-4.1,1.6c-1.1,1.1-1.6,2.5-1.6,4.2c0,1.8,0.5,3.2,1.6,4.2 C16-17,17.4-16.4,19-16.4z"></path> </g> </g> </g> <g> <g transform="translate(100.063546, 48.603229)"> <g> <path class="st0" d="M28.9-35.3c1.7,0,3.2,0.4,4.6,1.2c1.4,0.8,2.5,1.9,3.4,3.4c0.8,1.5,1.3,3.4,1.3,5.6v15.2h-7.4V-24 c0-1.6-0.4-2.7-1.3-3.4c-0.8-0.7-1.8-1.1-3-1.1c-1.3,0-2.5,0.4-3.3,1.2c-0.9,0.8-1.3,2.1-1.3,3.9v13.5h-7.4v-24.7h7.4v2.3 c0.7-0.9,1.6-1.6,2.8-2.2C25.9-35.1,27.3-35.3,28.9-35.3z"></path> </g> </g> </g> <g> <g transform="translate(147.725325, 48.603229)"> <g> <path class="st0" d="M44.8-35.3c1.7,0,3.2,0.4,4.6,1.2c1.4,0.8,2.5,1.9,3.4,3.4c0.8,1.5,1.3,3.4,1.3,5.6v15.2h-7.4V-24 c0-1.6-0.4-2.7-1.3-3.4c-0.8-0.7-1.8-1.1-3-1.1c-1.3,0-2.5,0.4-3.3,1.2c-0.9,0.8-1.3,2.1-1.3,3.9v13.5h-7.4v-24.7h7.4v2.3 c0.7-0.9,1.6-1.6,2.8-2.2C41.8-35.1,43.2-35.3,44.8-35.3z"></path> </g> </g> </g> <g> <g transform="translate(169.339828, 48.603229)"> <g> <path class="st0" d="M44.1-19.3c0.5,1.3,1.2,2.2,2.3,2.7c1.1,0.5,2.3,0.8,3.6,0.8c1,0,1.9-0.2,2.8-0.5c0.8-0.4,1.5-0.8,2-1.3 l5.9,3.4c-2.4,3.4-6,5.1-10.8,5.1c-2.8,0-5.2-0.6-7.3-1.7c-2.1-1.2-3.6-2.7-4.8-4.7c-1.1-2-1.6-4.2-1.6-6.6 c0-2.5,0.5-4.7,1.6-6.6c1.1-2,2.7-3.5,4.6-4.7c2-1.2,4.3-1.7,6.9-1.7c2.4,0,4.6,0.6,6.5,1.7c1.9,1.1,3.4,2.7,4.5,4.6 c1.1,2,1.6,4.2,1.6,6.7c0,1-0.1,2-0.3,3H44.1z M44-24.9h10.6c-0.4-1.4-1.1-2.4-2.1-3c-1-0.6-2-0.9-3.2-0.9 C46.5-28.8,44.7-27.4,44-24.9z"></path> </g> </g> </g> <g> <g transform="translate(190.843115, 48.603229)"> <g> <path class="st0" d="M71.9-34.6h7.9L71.9-9.9h-6.9L61-23.1L57-9.9h-6.9l-7.9-24.7h7.9l3.5,13.2l3.9-13.2h6.9l3.9,13.2L71.9-34.6z "></path> </g> </g> </g> <g> <g transform="translate(219.390574, 48.603229)"> <g> <path class="st0" d="M61.2-27.4c0,0.5,0.3,0.8,0.9,1.1c0.6,0.3,1.4,0.5,2.3,0.8c0.9,0.2,1.9,0.5,2.9,0.8c1,0.3,2,0.8,2.9,1.4 c0.9,0.6,1.7,1.3,2.3,2.3c0.6,1,0.9,2.2,0.9,3.7c0,1.9-0.5,3.4-1.5,4.6c-1,1.2-2.2,2.1-3.8,2.6c-1.6,0.6-3.2,0.8-5,0.8 c-2.5,0-4.6-0.5-6.5-1.4c-1.8-1-3.2-2.4-4.2-4.5l6.4-3.7c0.7,1.9,2.1,2.9,4.2,2.9c1.8,0,2.7-0.5,2.7-1.5c0-0.5-0.3-0.8-0.9-1.1 c-0.6-0.3-1.4-0.5-2.3-0.8c-0.9-0.2-1.9-0.5-2.9-0.9c-1-0.3-2-0.8-2.9-1.4c-0.9-0.6-1.7-1.3-2.3-2.3c-0.6-0.9-0.9-2.1-0.9-3.5 c0-1.8,0.4-3.3,1.4-4.5c0.9-1.2,2.1-2.1,3.6-2.7c1.5-0.6,3.1-0.9,4.8-0.9c2,0,3.9,0.4,5.6,1.3c1.7,0.9,3.1,2.2,4.1,4l-6.3,3.4 c-0.3-0.7-0.8-1.2-1.3-1.6c-0.5-0.4-1.2-0.6-2-0.6C61.9-28.8,61.2-28.3,61.2-27.4z"></path> </g> </g> </g> <g> <g transform="translate(236.741503, 48.603229)"> <g> <path class="st0" d="M87.2-34.6h7.9L87.2-9.9h-6.9l-3.9-13.2l-4,13.2h-6.9l-7.9-24.7h7.9L69-21.4l3.9-13.2h6.9l3.9,13.2 L87.2-34.6z"></path> </g> </g> </g> <g> <g transform="translate(265.288962, 48.603229)"> <g> <path class="st0" d="M73.2-36.8c-1.2,0-2.2-0.4-3.1-1.3s-1.3-1.9-1.3-3.1c0-1.2,0.4-2.3,1.3-3.1s1.9-1.3,3.1-1.3 c1.2,0,2.3,0.4,3.1,1.3s1.3,1.9,1.3,3.1c0,1.2-0.4,2.2-1.3,3.1S74.4-36.8,73.2-36.8z M69.5-9.9v-24.7h7.4v24.7H69.5z"></path> </g> </g> </g> <g> <g transform="translate(274.928369, 48.603229)"> <g> <path class="st0" d="M80.1-30.2c0.5-1.7,1.5-2.9,2.9-3.7c1.5-0.8,3-1.2,4.5-1.2v8.4c-1-0.2-2.1-0.1-3.2,0.2 c-1.2,0.3-2.1,0.8-3,1.7c-0.8,0.8-1.2,2.1-1.2,3.8v11.2h-7.4v-24.7h7.4V-30.2z"></path> </g> </g> </g> <g> <g transform="translate(288.64597, 48.603229)"> <g> <path class="st0" d="M83.9-19.3c0.5,1.3,1.2,2.2,2.3,2.7c1.1,0.5,2.3,0.8,3.6,0.8c1,0,1.9-0.2,2.8-0.5c0.8-0.4,1.5-0.8,2-1.3 l5.9,3.4c-2.4,3.4-6,5.1-10.8,5.1c-2.8,0-5.2-0.6-7.3-1.7c-2.1-1.2-3.6-2.7-4.8-4.7c-1.1-2-1.6-4.2-1.6-6.6 c0-2.5,0.5-4.7,1.6-6.6c1.1-2,2.7-3.5,4.6-4.7c2-1.2,4.3-1.7,6.9-1.7c2.4,0,4.6,0.6,6.5,1.7c1.9,1.1,3.4,2.7,4.5,4.6 c1.1,2,1.6,4.2,1.6,6.7c0,1-0.1,2-0.3,3H83.9z M83.7-24.9h10.6c-0.4-1.4-1.1-2.4-2.1-3c-1-0.6-2-0.9-3.2-0.9 C86.3-28.8,84.5-27.4,83.7-24.9z"></path> </g> </g> </g> <g> <g> <g> <g> <g> <g> <path class="st1" d="M145.2,27.4c-2.1-13.5,26.4-15.5,36.1-27.4C170.7,19.6,153,18.5,145.2,27.4z M132.8,51.9 c-2-12.6,24.7-14.5,33.8-25.6C156.7,44.7,140.1,43.6,132.8,51.9z M142.6,37.9c-2-12.7,24.7-14.5,33.8-25.6 C166.5,30.7,149.9,29.6,142.6,37.9z"></path> </g> </g> </g> </g> </g> </g> </svg> 