<svg xmlns="http://www.w3.org/2000/svg" width="240" height="69" viewBox="0 0 240 69" fill="none"><path d="M1.14681 4.99023H3.01614C3.64882 4.99023 4.16295 5.50436 4.16295 6.13704V61.9051C4.16295 62.5378 3.64882 63.052 3.01614 63.052H1.14681C0.51413 63.052 0 62.5378 0 61.9051V6.13704C0 5.50436 0.51413 4.99023 1.14681 4.99023Z" fill="#DC4F40"></path><path d="M13.0418 3.99194H14.9112C15.5438 3.99194 16.058 4.50607 16.058 5.13875V62.9022C16.058 63.5349 15.5438 64.049 14.9112 64.049H13.0418C12.4091 64.049 11.895 63.5349 11.895 62.9022V5.13875C11.895 4.50607 12.4091 3.99194 13.0418 3.99194Z" fill="#DC4F40"></path><path d="M7.09429 0H8.96488C9.59755 0 10.1117 0.514126 10.1117 1.14681V66.8955C10.1117 67.5282 9.59755 68.0423 8.96488 68.0423H7.09554C6.46286 68.0423 5.94873 67.5282 5.94873 66.8955V1.14681C5.94873 0.514126 6.46286 0 7.09554 0H7.09429Z" fill="#DC4F40"></path><path d="M30.8826 17.217H32.752C33.3847 17.217 33.8988 17.7312 33.8988 18.3639V49.6783C33.8988 50.311 33.3847 50.8252 32.752 50.8252H30.8826C30.25 50.8252 29.7358 50.311 29.7358 49.6783V18.3639C29.7358 17.7312 30.25 17.217 30.8826 17.217Z" fill="#DC4F40"></path><path d="M18.9876 7.23511H20.857C21.4896 7.23511 22.0038 7.74924 22.0038 8.38192V59.6576C22.0038 60.2903 21.4896 60.8044 20.857 60.8044H18.9876C18.355 60.8044 17.8408 60.2903 17.8408 59.6576V8.38317C17.8408 7.75049 18.355 7.23636 18.9876 7.23636V7.23511Z" fill="#DC4F40"></path><path d="M24.9351 12.2268H26.8057C27.4384 12.2268 27.9525 12.7409 27.9525 13.3736V54.6687C27.9525 55.3014 27.4384 55.8155 26.8057 55.8155H24.9364C24.3037 55.8155 23.7896 55.3014 23.7896 54.6687V13.3736C23.7896 12.7409 24.3037 12.2268 24.9364 12.2268H24.9351Z" fill="#DC4F40"></path><path d="M50.1129 14.2632C53.3924 14.2632 56.124 15.3002 58.3103 17.3729C60.4953 19.4457 61.5897 22.9685 61.5897 27.9438V40.1544C61.5897 45.1284 60.4966 48.6537 58.3103 50.7252C56.124 52.798 53.3924 53.835 50.1129 53.835H39.2026V14.2632H50.1129ZM54.07 28.2832C54.07 26.022 53.7218 24.3461 53.0242 23.2517C52.3267 22.1586 51.3571 21.612 50.1129 21.612H46.7773V46.4861H50.1129C51.3571 46.4861 52.3267 45.9396 53.0242 44.8464C53.7218 43.7533 54.07 42.0574 54.07 39.7588V28.2832Z" fill="black"></path><path d="M82.2797 21.612H72.7258V30.1488H81.7144V37.4976H72.7258V46.4861H82.2797V53.835H65.1499V14.2632H82.2797V21.612V21.612Z" fill="black"></path><path d="M85.0498 27.4347C85.0498 22.6104 86.1704 19.1251 88.4129 16.9762C90.6541 14.8286 93.4156 13.7542 96.6938 13.7542C99.972 13.7542 102.488 14.7999 104.694 16.8913C106.899 18.9828 108.02 22.3658 108.057 27.0392V28.2833H100.481V27.2663C100.33 23.1595 99.0686 21.1042 96.6938 21.1042C94.0932 21.1042 92.7929 23.3279 92.7929 27.7754V40.2119C92.7929 44.698 94.0932 46.9392 96.6938 46.9392C99.0686 46.9392 100.33 44.9039 100.481 40.8333V39.7027H108.057V40.9469C108.018 45.6589 106.898 49.0594 104.694 51.1508C102.489 53.2423 99.8223 54.2893 96.6938 54.2893C93.5654 54.2893 90.6541 53.2149 88.4129 51.0672C86.1704 48.9196 85.0498 45.4343 85.0498 40.6087V27.4372V27.4347Z" fill="black"></path><path d="M128.351 21.612H118.798V30.1488H127.786V37.4976H118.798V46.4861H128.351V53.835H111.222V14.2632H128.351V21.612Z" fill="black"></path><path d="M148.364 14.2632H155.657V53.835H148.252L138.754 31.675V53.835H131.405V14.2632H138.868L148.365 36.4232V14.2632H148.364Z" fill="black"></path><path d="M179.569 14.2632V21.612H173.011V53.835H165.437V21.612H158.879V14.2632H179.569V14.2632Z" fill="black"></path><path d="M183.243 53.835V14.2632H191.101V53.835H183.243Z" fill="black"></path><path d="M212.469 53.835L210.717 45.0723H203.82L202.011 53.835H194.436L202.406 14.2632H212.074L220.044 53.835H212.469V53.835ZM204.611 37.4976H209.811L207.211 22.8561L204.61 37.4976H204.611Z" fill="black"></path><path d="M230.954 46.4861H240V53.835H223.379V14.2632H230.954V46.4861V46.4861Z" fill="black"></path></svg>