<svg xmlns="http://www.w3.org/2000/svg" xmlns:xlink="http://www.w3.org/1999/xlink" id="Layer_1" x="0px" y="0px" viewBox="0 0 800 800" style="enable-background:new 0 0 800 800;" xml:space="preserve"> <style type="text/css"> .st0{fill:#0B132B;} .st1{fill:#6141AC;} </style> <g> <path class="st0" d="M798.9,1.7c0,266,0,532,0,798c-265.9,0-531.9,0-797.8,0c0.1-3.4,0.4-6.7,0.4-10.1c0-259,0-517.9,0-776.9 c0-3.3,0-6.6,0-10.7c4,0,7.4,0,10.7,0c258.9,0,517.8,0,776.7,0C792.2,2.1,795.6,1.8,798.9,1.7z"></path> <path class="st1" d="M253.9,595.2c0-126.9,0-253.4,0-380.4c26.8,0,53.2,0,80,0c2.3,7.4-0.1,15,1.7,22.2c2.8,0,3.9-2.1,5.3-3.4 c32.4-27.7,69.5-33.5,109.1-21.3c54.3,16.6,83.6,55.7,93.3,110.5c7.9,44.4-0.8,85.2-28.1,121.5c-19.2,25.4-44.5,42.7-75.6,48.2 c-37.2,6.6-72.2,0.4-100.8-27.2c-0.7-0.6-1.6-1-3.7-2.2c0,44.5,0,88,0,132.1C307.5,595.2,281,595.2,253.9,595.2z M334.3,349 c-0.5,6.3,0.8,12.4,2,18.4c4.8,23,19.4,38,40.8,46.3c13,5,26.3,4.2,40,0.4c20.8-5.8,36.2-16.9,43.4-37.7 c4.3-12.5,3.7-25.5,2.9-38.4c-0.4-6.1-1-12.8-3.9-17.9c-10.7-18.8-25.6-31.2-48.4-34.6c-34.2-5-61.5,11.6-72.4,38.9 C336.9,328.8,334.7,344.9,334.3,349z"></path> </g> </svg>