<svg xmlns="http://www.w3.org/2000/svg" xmlns:xlink="http://www.w3.org/1999/xlink" id="Layer_1" x="0px" y="0px" viewBox="0 0 800 800" style="enable-background:new 0 0 800 800;" xml:space="preserve"> <style type="text/css"> .st0{fill:#798BFF;} .st1{fill:#FFFFFF;} </style> <circle class="st0" cx="400" cy="400" r="400"></circle> <g> <path class="st1" d="M518.8,569.6c-9.4,0-16.9-7.6-16.9-16.9c0-56.1-45.6-101.8-101.8-101.8s-101.8,45.6-101.8,101.8 c0,9.4-7.6,16.9-16.9,16.9c-9.4,0-16.9-7.6-16.9-16.9c0-36.2,14.1-70.3,39.7-96c25.6-25.6,59.7-39.7,96-39.7s70.3,14.1,96,39.7 c25.6,25.6,39.7,59.7,39.7,96C535.7,562,528.1,569.6,518.8,569.6z M400,400c-46.8,0-84.8-38.1-84.8-84.8s38.1-84.8,84.8-84.8 s84.8,38.1,84.8,84.8S446.8,400,400,400z M400,264.3c-28,0-50.9,22.8-50.9,50.9c0,28,22.8,50.9,50.9,50.9c28,0,50.9-22.8,50.9-50.9 C450.9,287.1,428.1,264.3,400,264.3z"></path> </g> </svg>